<svg xmlns="http://www.w3.org/2000/svg" version="1.1" width="1646" height="1037">style="background-color:rgb(none)">
<polygon id="Cedars-Sinai Culver City_Primary Care_1_103" points="584,436 495,436 495,545 584,545 584,436" stroke="rgb(255,0,0)" stroke-width="2.0" fill="none" />
<polygon id="Cedars-Sinai Culver City_Primary Care_1_101" points="588,551 464,551 464,539 489,539 489,436 355,436 355,593 495,593 495,605 561,605 561,593 588,593 588,551" stroke="rgb(255,0,0)" stroke-width="2.0" fill="none" />
<polygon id="Cedars-Sinai Culver City_Primary Care_1_128" points="654,621 659,621 659,585 654,585 654,495 659,495 659,459 654,459 654,368 659,368 659,332 654,332 654,246 594,246 594,250 593,250 593,436 584,436 584,545 593,545 593,605 492,605 492,669 593,669 593,681 584,681 584,772 654,772 654,621" stroke="rgb(255,0,0)" stroke-width="2.0" fill="none" />
<polygon id="Cedars-Sinai Culver City_Primary Care_1_102" points="584,681 570,681 570,675 397,675 397,884 570,884 570,860 584,860 584,681" stroke="rgb(255,0,0)" stroke-width="2.0" fill="none" />
<polygon id="Cedars-Sinai Culver City_Primary Care_1_127" points="1500,772 1451,772 1451,767 1403,767 1403,772 1386,772 1386,635 1381,635 1381,627 1339,627 1339,635 1327,635 1327,638 1326,669 1327,669 1327,772 1317,772 1317,766 1281,766 1281,772 1231,772 1231,766 1195,766 1195,772 1155,772 1155,767 1119,767 1119,772 1029,772 1029,767 993,767 993,772 903,772 903,767 867,767 867,772 777,772 777,767 741,767 741,772 584,772 584,860 588,860 588,884 932,884 932,833 940,833 940,838 976,838 976,833 1066,833 1066,838 1102,838 1102,833 1193,833 1193,838 1229,838 1229,833 1319,833 1319,838 1355,838 1355,833 1446,833 1446,838 1483,838 1483,833 1500,833 1500,772" stroke="rgb(255,0,0)" stroke-width="2.0" fill="none" />
<polygon id="Cedars-Sinai Culver City_Primary Care_1_126" points="1058,838 936,838 936,972 1036,972 1036,979 1056,979 1056,972 1058,972 1058,838" stroke="rgb(255,0,0)" stroke-width="2.0" fill="none" />
<polygon id="Cedars-Sinai Culver City_Primary Care_1_125" points="1184,838 1063,838 1063,972 1162,972 1162,979 1182,979 1182,972 1184,972 1184,838" stroke="rgb(255,0,0)" stroke-width="2.0" fill="none" />
<polygon id="Cedars-Sinai Culver City_Primary Care_1_124" points="1311,838 1189,838 1189,972 1289,972 1289,979 1309,979 1309,972 1311,972 1311,838" stroke="rgb(255,0,0)" stroke-width="2.0" fill="none" />
<polygon id="Cedars-Sinai Culver City_Primary Care_1_123" points="1437,838 1316,838 1316,972 1415,972 1415,979 1435,979 1435,972 1437,972 1437,838" stroke="rgb(255,0,0)" stroke-width="2.0" fill="none" />
<polygon id="Cedars-Sinai Culver City_Primary Care_1_122" points="1562,772 1506,772 1506,838 1442,838 1442,972 1562,972 1562,772" stroke="rgb(255,0,0)" stroke-width="2.0" fill="none" />
<polygon id="Cedars-Sinai Culver City_Primary Care_1_121" points="1562,572 1392,572 1392,767 1562,767 1562,713 1509,713 1492,735 1488,732 1506,708 1562,708 1562,572" stroke="rgb(255,0,0)" stroke-width="2.0" fill="none" />
<polygon id="Cedars-Sinai Culver City_Primary Care_1_D133" points="1326,638 1321,638 1321,635 1286,635 1286,672 1321,672 1321,669 1326,669 1326,638" stroke="rgb(255,0,0)" stroke-width="2.0" fill="none" />
<polygon id="Cedars-Sinai Culver City_Primary Care_1_132" points="1281,627 1245,627 1245,635 1241,635 1241,672 1281,672 1281,627" stroke="rgb(255,0,0)" stroke-width="2.0" fill="none" />
<polygon id="Cedars-Sinai Culver City_Primary Care_1_115" points="1321,678 1241,678 1241,766 1321,766 1321,678" stroke="rgb(255,0,0)" stroke-width="2.0" fill="none" />
<polygon id="Cedars-Sinai Culver City_Primary Care_1_116" points="1235,635 1186,635 1186,627 1166,627 1166,635 1164,635 1164,766 1235,766 1235,635" stroke="rgb(255,0,0)" stroke-width="2.0" fill="none" />
<polygon id="Cedars-Sinai Culver City_Primary Care_1_120" points="1158,635 1060,635 1060,627 1040,627 1040,635 1038,635 1038,767 1158,767 1158,635" stroke="rgb(255,0,0)" stroke-width="2.0" fill="none" />
<polygon id="Cedars-Sinai Culver City_Primary Care_1_119" points="1032,635 934,635 934,627 914,627 914,635 912,635 912,767 1032,767 1032,635" stroke="rgb(255,0,0)" stroke-width="2.0" fill="none" />
<polygon id="Cedars-Sinai Culver City_Primary Care_1_118" points="906,635 785,635 785,767 906,767 906,635" stroke="rgb(255,0,0)" stroke-width="2.0" fill="none" />
<polygon id="Cedars-Sinai Culver City_Primary Care_1_117" points="780,630 659,630 659,767 780,767 780,630" stroke="rgb(255,0,0)" stroke-width="2.0" fill="none" />
<polygon id="Cedars-Sinai Culver City_Primary Care_1_114" points="794,525 803,525 803,505 794,505 794,503 659,503 659,625 794,625 794,525" stroke="rgb(255,0,0)" stroke-width="2.0" fill="none" />
<polygon id="Cedars-Sinai Culver City_Primary Care_1_113" points="794,399 803,399 803,379 794,379 794,377 659,377 659,498 794,498 794,399" stroke="rgb(255,0,0)" stroke-width="2.0" fill="none" />
<polygon id="Cedars-Sinai Culver City_Primary Care_1_112" points="794,272 803,272 803,252 794,252 794,250 659,250 659,372 794,372 794,272" stroke="rgb(255,0,0)" stroke-width="2.0" fill="none" />
<polygon id="Cedars-Sinai Culver City_Primary Care_1_105" points="455,321 408,321 408,315 372,315 372,321 369,321 369,431 455,431 455,321" stroke="rgb(255,0,0)" stroke-width="2.0" fill="none" />
<polygon id="Cedars-Sinai Culver City_Primary Care_1_104" points="588,321 528,321 528,315 492,315 492,321 460,321 460,431 588,431 588,321" stroke="rgb(255,0,0)" stroke-width="2.0" fill="none" />
<polygon id="Cedars-Sinai Culver City_Primary Care_1_128A" points="593,250 582,250 582,245 546,245 546,250 523,250 523,224 412,224 412,250 310,250 310,315 324,315 324,321 360,321 360,315 593,315 593,250" stroke="rgb(255,0,0)" stroke-width="2.0" fill="none" />
<polygon id="Cedars-Sinai Culver City_Primary Care_1_111" points="794,91 591,91 591,245 594,245 654,246 654,245 794,245 794,91" stroke="rgb(255,0,0)" stroke-width="2.0" fill="none" />
<polygon id="Cedars-Sinai Culver City_Primary Care_1_110" points="586,91 466,91 466,219 528,219 528,245 586,245 586,91" stroke="rgb(255,0,0)" stroke-width="2.0" fill="none" />
<polygon id="Cedars-Sinai Culver City_Primary Care_1_130" points="461,153 412,153 412,219 416,219 416,224 452,224 452,219 461,219 461,153" stroke="rgb(255,0,0)" stroke-width="2.0" fill="none" />
<polygon id="Cedars-Sinai Culver City_Primary Care_1_131" points="461,91 457,91 457,83 421,83 421,91 412,91 412,148 461,148 461,91" stroke="rgb(255,0,0)" stroke-width="2.0" fill="none" />
<polygon id="Cedars-Sinai Culver City_Primary Care_1_100" points="343,389 235,389 235,413 184,413 184,407 148,407 148,413 144,413 144,516 195,516 195,524 114,524 114,763 195,763 195,771 182,771 182,884 391,884 391,669 491,669 491,605 343,605 343,389" stroke="rgb(255,0,0)" stroke-width="2.0" fill="none" />
<polygon id="Cedars-Sinai Culver City_Primary Care_1_106" points="363,321 360,321 360,321 324,321 304,321 304,295 236,295 236,383 363,383 363,321" stroke="rgb(255,0,0)" stroke-width="2.0" fill="none" />
<polygon id="Cedars-Sinai Culver City_Primary Care_1_107" points="229,295 145,295 145,407 229,407 229,295" stroke="rgb(255,0,0)" stroke-width="2.0" fill="none" />
<polygon id="Cedars-Sinai Culver City_Primary Care_1_108" points="136,245 112,245 112,251 105,251 105,281 112,281 112,287 136,287 136,245" stroke="rgb(255,0,0)" stroke-width="2.0" fill="none" />
<polygon id="Cedars-Sinai Culver City_Primary Care_1_132" points="177,225 172,225 172,224 112,224 112,241 141,241 141,287 172,287 172,255 177,255 177,225" stroke="rgb(255,0,0)" stroke-width="2.0" fill="none" />
<polygon id="Cedars-Sinai Culver City_Primary Care_1_109" points="407,91 112,91 112,107 110,203 112,203 112,220 177,220 177,289 305,289 305,245 310,245 310,250 380,250 380,245 407,245 407,91" stroke="rgb(255,0,0)" stroke-width="2.0" fill="none" />
</svg>
